<?xml version="1.0" encoding="utf-8"?>
<!-- Svg Vector Icons : http://www.onlinewebfonts.com/icon -->
<!DOCTYPE svg PUBLIC "-//W3C//DTD SVG 1.1//EN" "http://www.w3.org/Graphics/SVG/1.1/DTD/svg11.dtd">
<svg version="1.1" 
  xmlns="http://www.w3.org/2000/svg" 
  xmlns:xlink="http://www.w3.org/1999/xlink" x="0px" y="0px" viewBox="0 0 1000 1000" width=".8em" height=".8em" xml:space="preserve">
  <metadata> Svg Vector Icons : http://www.onlinewebfonts.com/icon </metadata>
  <g>
    <g transform="translate(0.000000,511.000000) scale(0.100000,-0.100000)">
      <path d="M3495.9,4974.7c-478.3-105-816.7-452.7-872.7-891.4c-63-506.3,231-961.4,732.7-1131.7l116.7-39.7l7-851.7l4.7-851.7l-581-1080.4C1234.9-2977.5,1094.9-3250.5,1041.2-3518.9c-116.7-583.3,235.7-1143.4,788.7-1248.4c163.3-30.3,6178.8-30.3,6342.2,0c604.3,114.3,947.4,742,756,1386.1c-58.3,191.3-497,1033.7-2004.4,3836.1l-406,753.7l4.7,854l7,854l93.3,28c576.4,172.7,872.7,814.4,646.4,1407c-119,312.7-410.7,548.3-772.4,625.4C6279.6,5021.4,3705.9,5021.4,3495.9,4974.7z M6405.7,4657.4c364-77,625.3-373.3,625.3-707c0-387.3-294-686-716.4-730.4l-123.7-14v-1043v-1043l126-231c291.7-539,1710.4-3194.4,1983.4-3710.1c233.3-445.7,301-597.3,331.3-732.7c77-371-60.7-686-359.3-833l-133-65.3H5001H1862.5l-133,65.3c-247.3,121.3-380.3,350-378,646.4c2.3,291.7-37.3,207.7,1628.7,3313.4l819,1528.4l11.7,898.4l11.7,898.4l361.7,7c291.7,4.7,366.3,14,401.3,44.3c63,56,53.7,158.7-18.7,214.7c-58.3,46.7-93.3,49-485.3,49c-487.7,0-634.7,28-823.7,151.7c-210,137.7-310.3,331.3-310.3,592.7c0,345.4,254.3,625.4,634.7,700C3740.9,4690,6258.7,4687.7,6405.7,4657.4z"/>
      <path d="M5530.6,1887.6c-88.7-98-21-228.7,107.3-210c67.7,9.3,114.4,105,81.7,168C5670.7,1938.9,5591.3,1955.3,5530.6,1887.6z"/>
      <path d="M4933.3,1285.6c-235.7-198.3-35-578.7,263.7-497c126,35,200.7,140,200.7,282.3c0,102.7-9.3,126-79.3,196c-70,70-93.3,79.3-196,79.3C5029,1346.3,4989.3,1332.3,4933.3,1285.6z"/>
      <path d="M5642.6,457.2c-165.7-49-308-277.7-282.3-450.4c53.7-338.3,455-483,697.7-252c95.7,88.7,133,172.7,133,294c0,189-77,312.7-245,389.7C5845.7,485.2,5754.6,489.9,5642.6,457.2z"/>
      <path d="M3999.9,235.6c-65.3-84-63-184.3,9.3-254.3c116.7-119,315-35,315,135.3C4324.3,284.6,4102.6,366.2,3999.9,235.6z"/>
      <path d="M3110.9-1141.2c-1276.4-2396.4-1243.7-2331-1192.4-2564.4c37.3-163.3,140-273,289.3-312.7c151.7-37.3,5434.5-37.3,5586.2,0c238,60.7,354.7,305.7,280,581c-35,126-308,655.7-1108.4,2149.1l-296.3,550.7l-478.3,14c-522.7,16.3-835.3,53.7-1220.4,149.3c-149.3,35-259,53.7-270.7,39.6c-9.3-11.7-310.3-646.3-665-1409.4c-357-763-669.7-1411.7-695.4-1442c-196-207.7-569.3,4.7-490,280c14,42,303.3,674.3,644,1404.7c343,730.4,616,1332.4,609,1339.4c-4.7,7-133,16.3-284.7,21l-275.3,11.7L3110.9-1141.2z"/>
    </g>
  </g>
</svg>